{
  "accessors": [
    {
      "bufferView": 2,
      "componentType": 5126,
      "count": 2734,
      "max": [
        1.2322362661361694,
        2.3067717552185059,
        0.84154307842254639
      ],
      "min": [
        -1.2322362661361694,
        -0.78561794757843018,
        -2.0532927513122559
      ],
      "type": "VEC3"
    },
    {
      "bufferView": 2,
      "byteOffset": 32808,
      "componentType": 5126,
      "count": 2734,
      "max": [
        0.99882179498672485,
        0.99686551094055176,
        0.99941480159759521
      ],
      "min": [
        -0.99882179498672485,
        -0.99990075826644897,
        -0.9995495080947876
      ],
      "type": "VEC3"
    },
    {
      "bufferView": 3,
      "componentType": 5126,
      "count": 2734,
      "max": [
        0.99945783615112305,
        0.99954956769943237,
        0.99996823072433472,
        1
      ],
      "min": [
        -1,
        -0.99448871612548828,
        -0.9991919994354248,
        1
      ],
      "type": "VEC4"
    },
    {
      "bufferView": 3,
      "byteOffset": 43744,
      "componentType": 5126,
      "count": 2734,
      "max": [
        0.21013177931308746,
        0.15686275064945221,
        0.11372549831867218,
        1
      ],
      "min": [
        0.02317071333527565,
        0.016516808420419693,
        0.0098629062995314598,
        1
      ],
      "type": "VEC4"
    },
    {
      "bufferView": 1,
      "componentType": 5126,
      "count": 2734,
      "max": [
        0.99788039922714233,
        0.99799996614456177
      ],
      "min": [
        0.0020000000949949026,
        0.0020000000949949026
      ],
      "type": "VEC2"
    },
    {
      "bufferView": 0,
      "componentType": 5125,
      "count": 2754,
      "max": [
        2733
      ],
      "min": [
        0
      ],
      "type": "SCALAR"
    }
  ],
  "asset": {
    "extras": {
      "author": "hymer (https://sketchfab.com/hymer)",
      "license": "CC-BY-4.0 (http://creativecommons.org/licenses/by/4.0/)",
      "source": "https://sketchfab.com/models/96b3161ee04e4bb1854aece80aaf6598",
      "title": "Bear head"
    },
    "generator": "Sketchfab-3.18.5",
    "version": "2.0"
  },
  "bufferViews": [
    {
      "buffer": 0,
      "byteLength": 11016,
      "byteOffset": 0,
      "name": "floatBufferViews",
      "target": 34963
    },
    {
      "buffer": 0,
      "byteLength": 21872,
      "byteOffset": 11016,
      "byteStride": 8,
      "name": "floatBufferViews",
      "target": 34962
    },
    {
      "buffer": 0,
      "byteLength": 65616,
      "byteOffset": 32888,
      "byteStride": 12,
      "name": "floatBufferViews",
      "target": 34962
    },
    {
      "buffer": 0,
      "byteLength": 87488,
      "byteOffset": 98504,
      "byteStride": 16,
      "name": "floatBufferViews",
      "target": 34962
    }
  ],
  "buffers": [
    {
      "byteLength": 185992,
      "uri": "data:application/gltf-buffer;base64,"
    }
  ],
  "images": [
    {
      "uri": "data:image/png;base64,"
    }
  ],
  "materials": [
    {
      "doubleSided": true,
      "emissiveFactor": [
        0,
        0,
        0
      ],
      "name": "03_-_Default",
      "pbrMetallicRoughness": {
        "baseColorFactor": [
          1,
          1,
          1,
          1
        ],
        "baseColorTexture": {
          "index": 0,
          "texCoord": 0
        },
        "metallicFactor": 0.68464176830000001,
        "roughnessFactor": 0.35537347559999999
      }
    }
  ],
  "meshes": [
    {
      "name": "PM3D_Sphere3D_1_03 - Default_0",
      "primitives": [
        {
          "attributes": {
            "COLOR_0": 3,
            "NORMAL": 1,
            "POSITION": 0,
            "TANGENT": 2,
            "TEXCOORD_0": 4
          },
          "indices": 5,
          "material": 0,
          "mode": 4
        }
      ]
    }
  ],
  "nodes": [
    {
      "children": [
        1
      ],
      "name": "RootNode (gltf orientation matrix)",
      "rotation": [
        -0.70710678118654746,
        -0,
        -0,
        0.70710678118654757
      ]
    },
    {
      "children": [
        2
      ],
      "name": "RootNode (model correction matrix)"
    },
    {
      "children": [
        3
      ],
      "matrix": [
        1,
        0,
        0,
        0,
        0,
        0,
        1,
        0,
        0,
        -1,
        0,
        0,
        0,
        0,
        0,
        1
      ],
      "name": "7b1ffb7340884ded82e7abc4a990b65c.fbx"
    },
    {
      "children": [
        4
      ],
      "name": "RootNode"
    },
    {
      "children": [
        5
      ],
      "matrix": [
        1,
        0,
        0,
        0,
        0,
        2.2204460492503131e-16,
        -1,
        0,
        0,
        1,
        2.2204460492503131e-16,
        0,
        0.32587242126464844,
        0,
        0,
        1
      ],
      "name": "PM3D_Sphere3D_1"
    },
    {
      "mesh": 0,
      "name": "PM3D_Sphere3D_1_03 - Default_0"
    }
  ],
  "samplers": [
    {
      "magFilter": 9729,
      "minFilter": 9987,
      "wrapS": 10497,
      "wrapT": 10497
    }
  ],
  "scene": 0,
  "scenes": [
    {
      "name": "OSG_Scene",
      "nodes": [
        0
      ]
    }
  ],
  "textures": [
    {
      "sampler": 0,
      "source": 0
    }
  ]
}

