{
  "accessors": [
    {
      "bufferView": 2,
      "componentType": 5126,
      "count": 65532,
      "max": [
        8.8829193115234375,
        1.4262139797210693,
        5.1851181983947754
      ],
      "min": [
        -8.3173999786376953,
        -5.0892472267150879,
        -7.5835552215576172
      ],
      "type": "VEC3"
    },
    {
      "bufferView": 2,
      "byteOffset": 786384,
      "componentType": 5126,
      "count": 65532,
      "max": [
        0.99997544288635254,
        0.99999618530273438,
        0.9999234676361084
      ],
      "min": [
        -0.99996566772460938,
        -0.99999642372131348,
        -0.99999427795410156
      ],
      "type": "VEC3"
    },
    {
      "bufferView": 3,
      "componentType": 5126,
      "count": 65532,
      "max": [
        0.99999368190765381,
        0.99996763467788696,
        0.99999541044235229,
        1
      ],
      "min": [
        -0.99997234344482422,
        -0.99999558925628662,
        -0.99995476007461548,
        -1
      ],
      "type": "VEC4"
    },
    {
      "bufferView": 1,
      "componentType": 5126,
      "count": 65532,
      "max": [
        0.99839997291564941,
        0.99620002508163452
      ],
      "min": [
        0,
        0.0015999999595806003
      ],
      "type": "VEC2"
    },
    {
      "bufferView": 0,
      "componentType": 5125,
      "count": 320835,
      "max": [
        65531
      ],
      "min": [
        0
      ],
      "type": "SCALAR"
    },
    {
      "bufferView": 2,
      "byteOffset": 1572768,
      "componentType": 5126,
      "count": 65532,
      "max": [
        8.8838949203491211,
        4.5949702262878418,
        5.17681884765625
      ],
      "min": [
        -9.6754684448242188,
        -1.650426983833313,
        -7.544072151184082
      ],
      "type": "VEC3"
    },
    {
      "bufferView": 2,
      "byteOffset": 2359152,
      "componentType": 5126,
      "count": 65532,
      "max": [
        0.99999940395355225,
        0.99999940395355225,
        0.99992990493774414
      ],
      "min": [
        -0.99999761581420898,
        -0.99999964237213135,
        -0.99995172023773193
      ],
      "type": "VEC3"
    },
    {
      "bufferView": 3,
      "byteOffset": 1048512,
      "componentType": 5126,
      "count": 65532,
      "max": [
        0.99996381998062134,
        0.99973350763320923,
        0.99999868869781494,
        1
      ],
      "min": [
        -0.99997293949127197,
        -0.99999207258224487,
        -0.99999487400054932,
        -1
      ],
      "type": "VEC4"
    },
    {
      "bufferView": 1,
      "byteOffset": 524256,
      "componentType": 5126,
      "count": 65532,
      "max": [
        0.99949997663497925,
        0.99930000305175781
      ],
      "min": [
        0.0024000001139938831,
        0
      ],
      "type": "VEC2"
    },
    {
      "bufferView": 0,
      "byteOffset": 1283340,
      "componentType": 5125,
      "count": 309402,
      "max": [
        65531
      ],
      "min": [
        0
      ],
      "type": "SCALAR"
    },
    {
      "bufferView": 2,
      "byteOffset": 3145536,
      "componentType": 5126,
      "count": 65532,
      "max": [
        6.7966198921203613,
        3.2488930225372314,
        5.1834249496459961
      ],
      "min": [
        -9.6765165328979492,
        -1.6976310014724731,
        -3.9103100299835205
      ],
      "type": "VEC3"
    },
    {
      "bufferView": 2,
      "byteOffset": 3931920,
      "componentType": 5126,
      "count": 65532,
      "max": [
        0.99996030330657959,
        0.9999992847442627,
        0.99997186660766602
      ],
      "min": [
        -0.99999237060546875,
        -1,
        -0.99998509883880615
      ],
      "type": "VEC3"
    },
    {
      "bufferView": 3,
      "byteOffset": 2097024,
      "componentType": 5126,
      "count": 65532,
      "max": [
        0.99997198581695557,
        0.99999457597732544,
        0.99998462200164795,
        1
      ],
      "min": [
        -0.99999815225601196,
        -0.9998936653137207,
        -0.99999719858169556,
        -1
      ],
      "type": "VEC4"
    },
    {
      "bufferView": 1,
      "byteOffset": 1048512,
      "componentType": 5126,
      "count": 65532,
      "max": [
        0.99879997968673706,
        1
      ],
      "min": [
        0.00030000001424923539,
        0.00139999995008111
      ],
      "type": "VEC2"
    },
    {
      "bufferView": 0,
      "byteOffset": 2520948,
      "componentType": 5125,
      "count": 313890,
      "max": [
        65531
      ],
      "min": [
        0
      ],
      "type": "SCALAR"
    },
    {
      "bufferView": 2,
      "byteOffset": 4718304,
      "componentType": 5126,
      "count": 65532,
      "max": [
        8.8801412582397461,
        4.3497128486633301,
        5.1829338073730469
      ],
      "min": [
        -9.6092071533203125,
        -4.9772138595581055,
        -7.544072151184082
      ],
      "type": "VEC3"
    },
    {
      "bufferView": 2,
      "byteOffset": 5504688,
      "componentType": 5126,
      "count": 65532,
      "max": [
        0.9999619722366333,
        0.99999964237213135,
        0.99994575977325439
      ],
      "min": [
        -0.99999368190765381,
        -0.9999992847442627,
        -0.99999690055847168
      ],
      "type": "VEC3"
    },
    {
      "bufferView": 3,
      "byteOffset": 3145536,
      "componentType": 5126,
      "count": 65532,
      "max": [
        0.99993675947189331,
        0.99999326467514038,
        0.99998831748962402,
        1
      ],
      "min": [
        -0.99997293949127197,
        -0.99995404481887817,
        -0.99999487400054932,
        -1
      ],
      "type": "VEC4"
    },
    {
      "bufferView": 1,
      "byteOffset": 1572768,
      "componentType": 5126,
      "count": 65532,
      "max": [
        1,
        0.99940001964569092
      ],
      "min": [
        0,
        0.0023000000510364771
      ],
      "type": "VEC2"
    },
    {
      "bufferView": 0,
      "byteOffset": 3776508,
      "componentType": 5125,
      "count": 290022,
      "max": [
        65531
      ],
      "min": [
        0
      ],
      "type": "SCALAR"
    },
    {
      "bufferView": 2,
      "byteOffset": 6291072,
      "componentType": 5126,
      "count": 65532,
      "max": [
        8.8389425277709961,
        4.5899510383605957,
        5.1665639877319336
      ],
      "min": [
        -9.6589670181274414,
        -4.7390799522399902,
        -7.5823969841003418
      ],
      "type": "VEC3"
    },
    {
      "bufferView": 2,
      "byteOffset": 7077456,
      "componentType": 5126,
      "count": 65532,
      "max": [
        0.99997508525848389,
        0.99999964237213135,
        0.99995100498199463
      ],
      "min": [
        -0.99998974800109863,
        -0.99999761581420898,
        -0.99999690055847168
      ],
      "type": "VEC3"
    },
    {
      "bufferView": 3,
      "byteOffset": 4194048,
      "componentType": 5126,
      "count": 65532,
      "max": [
        0.99998366832733154,
        0.99993056058883667,
        0.99998462200164795,
        1
      ],
      "min": [
        -0.99996107816696167,
        -0.99999523162841797,
        -0.99999362230300903,
        -1
      ],
      "type": "VEC4"
    },
    {
      "bufferView": 1,
      "byteOffset": 2097024,
      "componentType": 5126,
      "count": 65532,
      "max": [
        1,
        1
      ],
      "min": [
        9.9999997473787516e-05,
        0
      ],
      "type": "VEC2"
    },
    {
      "bufferView": 0,
      "byteOffset": 4936596,
      "componentType": 5125,
      "count": 269040,
      "max": [
        65531
      ],
      "min": [
        0
      ],
      "type": "SCALAR"
    },
    {
      "bufferView": 2,
      "byteOffset": 7863840,
      "componentType": 5126,
      "count": 54834,
      "max": [
        8.8562402725219727,
        4.5725021362304688,
        5.1841850280761719
      ],
      "min": [
        -9.6728315353393555,
        -5.0804710388183594,
        -7.579312801361084
      ],
      "type": "VEC3"
    },
    {
      "bufferView": 2,
      "byteOffset": 8521848,
      "componentType": 5126,
      "count": 54834,
      "max": [
        0.99998152256011963,
        0.99998736381530762,
        0.99993038177490234
      ],
      "min": [
        -0.99999761581420898,
        -1,
        -0.99992942810058594
      ],
      "type": "VEC3"
    },
    {
      "bufferView": 3,
      "byteOffset": 5242560,
      "componentType": 5126,
      "count": 54834,
      "max": [
        0.99996381998062134,
        0.99993664026260376,
        0.99999850988388062,
        1
      ],
      "min": [
        -0.9999578595161438,
        -0.99995160102844238,
        -0.99998712539672852,
        -1
      ],
      "type": "VEC4"
    },
    {
      "bufferView": 1,
      "byteOffset": 2621280,
      "componentType": 5126,
      "count": 54834,
      "max": [
        1,
        1
      ],
      "min": [
        0,
        0
      ],
      "type": "VEC2"
    },
    {
      "bufferView": 0,
      "byteOffset": 6012756,
      "componentType": 5125,
      "count": 150441,
      "max": [
        54833
      ],
      "min": [
        0
      ],
      "type": "SCALAR"
    }
  ],
  "asset": {
    "generator": "Sketchfab (OSG glTF plugin)",
    "version": "2.0"
  },
  "bufferViews": [
    {
      "buffer": 0,
      "byteLength": 6614520,
      "byteOffset": 0,
      "name": "floatBufferViews",
      "target": 34963
    },
    {
      "buffer": 0,
      "byteLength": 3059952,
      "byteOffset": 6614520,
      "byteStride": 8,
      "name": "floatBufferViews",
      "target": 34962
    },
    {
      "buffer": 0,
      "byteLength": 9179856,
      "byteOffset": 9674472,
      "byteStride": 12,
      "name": "floatBufferViews",
      "target": 34962
    },
    {
      "buffer": 0,
      "byteLength": 6119904,
      "byteOffset": 18854328,
      "byteStride": 16,
      "name": "floatBufferViews",
      "target": 34962
    }
  ],
  "buffers": [
    {
      "byteLength": 24974232,
      "uri": "scene.bin"
    }
  ],
  "images": [
    {
      "uri": "textures/Scene%20-%20Root_baseColor.jpeg"
    }
  ],
  "materials": [
    {
      "doubleSided": true,
      "emissiveFactor": [
        0,
        0,
        0
      ],
      "name": "Scene - Root",
      "pbrMetallicRoughness": {
        "baseColorFactor": [
          1,
          1,
          1,
          1
        ],
        "baseColorTexture": {
          "index": 0,
          "texCoord": 0
        },
        "metallicFactor": 0.84317835370000005,
        "roughnessFactor": 0.51391006100000003
      }
    }
  ],
  "meshes": [
    {
      "primitives": [
        {
          "attributes": {
            "NORMAL": 1,
            "POSITION": 0,
            "TANGENT": 2,
            "TEXCOORD_0": 3
          },
          "indices": 4,
          "material": 0,
          "mode": 4
        }
      ]
    },
    {
      "primitives": [
        {
          "attributes": {
            "NORMAL": 6,
            "POSITION": 5,
            "TANGENT": 7,
            "TEXCOORD_0": 8
          },
          "indices": 9,
          "material": 0,
          "mode": 4
        }
      ]
    },
    {
      "primitives": [
        {
          "attributes": {
            "NORMAL": 11,
            "POSITION": 10,
            "TANGENT": 12,
            "TEXCOORD_0": 13
          },
          "indices": 14,
          "material": 0,
          "mode": 4
        }
      ]
    },
    {
      "primitives": [
        {
          "attributes": {
            "NORMAL": 16,
            "POSITION": 15,
            "TANGENT": 17,
            "TEXCOORD_0": 18
          },
          "indices": 19,
          "material": 0,
          "mode": 4
        }
      ]
    },
    {
      "primitives": [
        {
          "attributes": {
            "NORMAL": 21,
            "POSITION": 20,
            "TANGENT": 22,
            "TEXCOORD_0": 23
          },
          "indices": 24,
          "material": 0,
          "mode": 4
        }
      ]
    },
    {
      "primitives": [
        {
          "attributes": {
            "NORMAL": 26,
            "POSITION": 25,
            "TANGENT": 27,
            "TEXCOORD_0": 28
          },
          "indices": 29,
          "material": 0,
          "mode": 4
        }
      ]
    }
  ],
  "nodes": [
    {
      "children": [
        1
      ],
      "name": "RootNode (gltf orientation matrix)",
      "rotation": [
        -0.70710678118654746,
        -0,
        -0,
        0.70710678118654757
      ]
    },
    {
      "children": [
        2
      ],
      "matrix": [
        -0.99946540594100952,
        0,
        -0.03269394114613533,
        0,
        0,
        1,
        0,
        0,
        0.03269394114613533,
        0,
        -0.99946540594100952,
        0,
        -0.75323230028152466,
        0,
        -2.4107410907745361,
        1
      ],
      "name": "RootNode (model correction matrix)"
    },
    {
      "children": [
        9
      ],
      "name": "minibike2.obj.cleaner.materialmerger.gles"
    },
    {
      "mesh": 0,
      "name": ""
    },
    {
      "mesh": 1,
      "name": ""
    },
    {
      "mesh": 2,
      "name": ""
    },
    {
      "mesh": 3,
      "name": ""
    },
    {
      "mesh": 4,
      "name": ""
    },
    {
      "mesh": 5,
      "name": ""
    },
    {
      "children": [
        3,
        4,
        5,
        6,
        7,
        8
      ],
      "name": "Geode"
    }
  ],
  "samplers": [
    {
      "magFilter": 9729,
      "minFilter": 9987,
      "wrapS": 10497,
      "wrapT": 10497
    }
  ],
  "scene": 0,
  "scenes": [
    {
      "name": "OSG_Scene",
      "nodes": [
        0
      ]
    }
  ],
  "textures": [
    {
      "sampler": 0,
      "source": 0
    }
  ]
}

